<svg xmlns="http://www.w3.org/2000/svg" viewBox="0 0 363.17 401.04" width="30px"><g id="Camada_2" data-name="Camada 2"><defs><style> .brilin1 { animation: change 1s 0.6s infinite linear alternate; } .brilin2 { animation: change 1s 0.8s infinite linear alternate; } .brilin3 { animation: change 1s 0.10s infinite linear alternate; }  @keyframes change { 0% { fill: #F0A6CA } 35% { fill: #EFC3E6 } 100% { fill: #F0E6EF } </style></defs><g id="Layer_2" data-name="Layer 2"><path class="brilin1" fill="#fff" d="M363.17,265.33A106.67,106.67,0,0,0,256.5,372,106.66,106.66,0,0,0,149.84,265.33,106.66,106.66,0,0,0,256.5,158.66,106.67,106.67,0,0,0,363.17,265.33Z"/><path class="brilin2" fill="#fff" d="M173,352.44A48.59,48.59,0,0,0,124.44,401a48.6,48.6,0,0,0-48.59-48.6,48.59,48.59,0,0,0,48.59-48.59A48.58,48.58,0,0,0,173,352.44Z"/><path class="brilin3" fill="#fff" d="M248.88,124.44A124.45,124.45,0,0,0,124.43,248.89,124.44,124.44,0,0,0,0,124.44,124.43,124.43,0,0,0,124.43,0,124.44,124.44,0,0,0,248.88,124.44Z"/></g></g></svg>